<?xml version="1.0" standalone="no"?>
<!DOCTYPE svg PUBLIC "-//W3C//DTD SVG 20010904//EN"
 "http://www.w3.org/TR/2001/REC-SVG-20010904/DTD/svg10.dtd">
<svg version="1.0" xmlns="http://www.w3.org/2000/svg"
 width="2224.000000pt" height="1668.000000pt" viewBox="0 0 2224.000000 1668.000000"
 preserveAspectRatio="xMidYMid meet">

<g transform="translate(0.000000,1668.000000) scale(0.100000,-0.100000)"
fill="#000000" stroke="none">
<path d="M13125 15484 c-240 -31 -402 -66 -619 -133 -54 -17 -128 -36 -165
-42 -261 -41 -705 -174 -1271 -381 -308 -113 -403 -152 -875 -363 -535 -238
-571 -257 -895 -470 -102 -66 -277 -177 -390 -245 -381 -230 -409 -250 -1050
-760 -391 -311 -712 -610 -1059 -985 -399 -433 -526 -601 -796 -1050 -638
-1062 -895 -1621 -1085 -2360 -4 -16 -22 -82 -38 -145 -137 -510 -196 -767
-266 -1150 -51 -281 -109 -720 -126 -955 -26 -360 -1 -766 66 -1093 94 -455
142 -649 225 -894 110 -328 268 -648 538 -1086 331 -536 631 -849 1153 -1200
143 -96 553 -314 728 -387 36 -15 83 -35 105 -45 47 -21 221 -86 285 -107 97
-31 267 -76 385 -102 55 -12 118 -26 140 -31 328 -72 903 -112 1322 -92 225
11 499 37 643 62 30 5 98 16 150 25 81 14 312 59 430 85 136 29 682 164 835
205 153 42 335 91 460 125 107 29 169 46 380 110 287 86 899 339 1137 471 122
67 173 97 423 252 490 303 585 370 825 582 80 70 224 197 322 281 316 276 510
479 789 829 461 578 605 788 773 1122 127 254 196 435 340 893 95 304 188 658
352 1345 76 322 167 850 194 1130 43 453 51 841 25 1147 -32 389 -115 961
-180 1253 -9 39 -21 93 -26 120 -45 209 -111 485 -145 605 -44 156 -117 369
-178 520 -25 63 -46 121 -46 128 0 13 26 14 168 9 295 -10 490 -63 732 -200
132 -74 249 -167 417 -331 166 -161 282 -305 333 -410 31 -66 69 -212 88 -339
13 -85 31 -114 78 -123 73 -13 109 45 120 190 8 109 -8 216 -55 357 -77 230
-146 334 -370 559 -208 210 -346 311 -566 416 -269 128 -472 172 -852 183
-172 6 -247 12 -258 21 -8 7 -29 38 -47 69 -17 31 -106 180 -196 331 -368 613
-488 761 -1067 1310 -282 268 -667 502 -1011 615 -224 73 -413 109 -689 130
-238 18 -502 18 -640 -1z m1013 -339 c238 -65 329 -98 487 -175 203 -99 427
-246 580 -379 188 -164 516 -483 602 -586 76 -92 182 -238 276 -381 105 -160
352 -571 361 -602 6 -19 4 -22 -18 -22 -22 0 -129 -15 -441 -60 -80 -12 -243
-42 -390 -72 -55 -11 -118 -24 -140 -28 -75 -13 -460 -102 -555 -127 -428
-114 -500 -137 -1330 -418 -489 -166 -574 -192 -810 -250 -370 -91 -616 -120
-947 -112 -370 9 -580 56 -746 169 -174 118 -348 347 -401 527 -19 64 -21 215
-5 359 42 385 242 772 623 1202 242 272 337 360 526 482 396 256 643 376 869
419 113 22 617 -1 826 -37 178 -31 379 -105 473 -173 49 -36 169 -211 191
-279 34 -102 147 -126 180 -39 18 46 -10 146 -83 302 -53 112 -121 188 -230
256 l-81 51 63 -6 c35 -3 89 -13 120 -21z m-2668 -350 c0 -3 -71 -76 -158
-162 -494 -491 -774 -904 -894 -1318 -54 -186 -86 -486 -68 -630 18 -139 54
-232 152 -399 89 -151 197 -275 328 -378 236 -186 564 -269 1070 -271 300 -1
592 41 995 143 208 52 252 66 950 297 577 190 679 224 740 243 125 38 398 108
605 156 36 8 83 19 105 25 78 19 363 77 510 104 50 9 110 20 135 25 25 5 90
16 145 25 55 9 124 20 152 25 107 19 354 35 371 24 22 -14 39 -49 111 -229
124 -311 192 -538 265 -895 9 -41 27 -129 42 -195 14 -66 29 -142 34 -170 5
-27 16 -88 25 -135 65 -359 141 -995 152 -1275 11 -306 -45 -990 -112 -1360
-32 -171 -65 -344 -84 -430 -11 -49 -25 -115 -31 -145 -31 -150 -193 -799
-260 -1045 -12 -44 -25 -89 -27 -100 -40 -159 -181 -588 -254 -773 -125 -316
-340 -689 -564 -977 -254 -326 -532 -660 -676 -810 -130 -135 -225 -222 -533
-490 -369 -321 -437 -372 -781 -585 -398 -246 -522 -319 -675 -394 -192 -95
-210 -103 -474 -207 -312 -124 -510 -188 -996 -324 -74 -21 -164 -46 -200 -56
-36 -10 -123 -34 -195 -53 -71 -19 -166 -44 -210 -56 -124 -34 -585 -150 -630
-160 -22 -4 -105 -22 -185 -39 -408 -86 -704 -116 -1155 -115 -328 0 -485 10
-730 45 -462 66 -816 164 -1155 319 -541 247 -935 509 -1246 831 -327 339
-782 1070 -957 1539 -89 239 -161 498 -232 840 -14 69 -30 145 -35 170 -82
394 -84 898 -4 1475 59 435 112 734 189 1070 55 241 178 717 236 910 146 482
345 930 667 1495 25 44 88 150 192 325 29 49 58 98 64 110 35 64 189 315 249
405 144 216 351 468 596 725 483 507 647 658 1151 1060 486 387 533 421 841
606 112 67 285 177 384 244 292 198 381 248 740 410 17 8 70 32 118 54 49 23
91 41 93 41 2 0 27 11 56 24 169 77 502 215 688 284 374 139 370 138 370 127z"/>
<path d="M8542 9961 c-72 -25 -149 -80 -226 -161 -62 -66 -129 -158 -153 -210
-33 -71 -45 -104 -77 -205 -55 -175 -58 -192 -60 -347 l-1 -146 30 -44 c59
-84 152 -104 258 -55 99 45 283 200 329 276 12 20 53 83 91 141 89 133 123
208 148 328 16 73 20 124 17 204 -3 100 -5 109 -33 149 -45 63 -101 89 -194
89 -47 -1 -96 -8 -129 -19z"/>
<path d="M13020 9639 c-56 -16 -79 -29 -190 -113 -169 -126 -210 -172 -294
-328 -62 -114 -91 -200 -112 -336 -17 -109 -17 -114 1 -189 16 -63 27 -85 60
-119 132 -137 392 -47 596 206 85 105 182 317 200 434 6 39 9 127 7 196 -4
114 -6 129 -30 166 -39 61 -79 85 -146 90 -31 2 -73 -1 -92 -7z"/>
<path d="M11436 5015 c-97 -41 -211 -101 -288 -153 -158 -106 -601 -336 -798
-415 -110 -43 -369 -111 -710 -186 -207 -46 -511 -65 -787 -51 -394 21 -545
50 -728 140 -94 47 -153 93 -216 169 -79 96 -106 143 -133 233 -30 100 -64
138 -122 138 -174 0 -165 -258 18 -508 111 -153 172 -208 313 -280 142 -73
255 -109 450 -143 166 -29 663 -37 880 -15 305 32 532 83 865 193 280 93 643
274 1074 532 117 70 202 111 274 132 80 23 127 52 142 88 18 43 4 86 -38 121
-47 39 -111 40 -196 5z"/>
</g>
</svg>
