<?xml version="1.0" standalone="no"?>
<!DOCTYPE svg PUBLIC "-//W3C//DTD SVG 20010904//EN"
 "http://www.w3.org/TR/2001/REC-SVG-20010904/DTD/svg10.dtd">
<svg version="1.0" xmlns="http://www.w3.org/2000/svg"
 width="1502.000000pt" height="1549.000000pt" viewBox="0 0 1502.000000 1549.000000"
 preserveAspectRatio="xMidYMid meet">

<g transform="translate(0.000000,1549.000000) scale(0.100000,-0.100000)"
fill="#000000" stroke="none">
<path d="M7815 15115 c-5 -2 -66 -9 -134 -15 -202 -17 -377 -52 -554 -111
-340 -112 -932 -435 -1237 -674 -121 -95 -154 -113 -345 -191 -284 -117 -462
-214 -755 -412 -102 -69 -286 -194 -410 -277 -273 -182 -382 -263 -530 -391
-14 -12 -63 -54 -110 -94 -346 -294 -778 -749 -947 -997 -55 -80 -234 -373
-295 -483 -60 -108 -275 -483 -323 -565 -62 -105 -128 -231 -172 -330 -17 -38
-43 -95 -56 -125 -78 -174 -227 -581 -272 -745 -58 -209 -168 -637 -184 -715
-5 -25 -18 -92 -30 -150 -11 -58 -25 -127 -31 -155 -73 -366 -103 -699 -121
-1360 -25 -880 25 -1593 157 -2240 46 -229 55 -271 106 -475 127 -519 347
-1184 479 -1451 136 -276 252 -456 454 -710 77 -96 161 -202 186 -235 375
-483 579 -688 989 -994 460 -343 905 -582 1380 -741 308 -103 498 -140 920
-180 181 -18 842 -18 1015 -1 248 25 537 70 675 107 52 13 106 27 120 31 141
36 353 110 550 192 111 46 700 336 735 362 6 4 60 33 120 65 552 292 1102 707
1494 1126 282 301 376 405 487 539 217 262 593 795 734 1040 109 192 451 878
595 1195 34 75 124 305 158 405 36 107 122 402 141 485 87 395 111 584 126
1020 17 492 13 715 -21 1340 -17 317 -29 452 -63 705 -8 63 -20 149 -25 190
-64 487 -178 1017 -301 1395 -100 308 -154 439 -340 830 -68 143 -73 153 -185
400 -128 281 -153 342 -145 355 9 14 136 3 304 -26 228 -40 562 -186 727 -319
152 -123 193 -214 193 -430 0 -141 -10 -190 -78 -396 -63 -188 -203 -729 -212
-816 -14 -132 26 -221 118 -267 121 -61 233 -23 400 133 151 142 349 450 446
696 133 335 177 586 153 876 -22 272 -76 455 -184 629 -136 217 -264 335 -552
508 -244 146 -392 213 -614 279 -193 56 -363 82 -731 109 -189 13 -255 14
-412 5 -121 -8 -194 -9 -206 -2 -9 5 -40 36 -68 68 -119 138 -327 387 -419
503 -122 154 -343 381 -490 504 -229 193 -528 406 -752 539 -485 287 -1029
448 -1503 446 -80 0 -149 -2 -155 -4z m614 -1075 c253 0 410 -4 435 -11 101
-27 311 -146 561 -317 241 -164 420 -327 653 -592 180 -206 186 -214 168 -229
-8 -7 -101 -34 -207 -61 -323 -82 -724 -199 -919 -270 -63 -23 -160 -56 -215
-75 -55 -18 -152 -52 -215 -75 -63 -23 -126 -46 -140 -50 -59 -19 -254 -91
-365 -135 -66 -25 -217 -84 -335 -130 -202 -78 -686 -275 -775 -315 -34 -15
-184 -67 -290 -100 -184 -57 -531 -142 -628 -155 -160 -20 -416 -20 -510 1
-187 42 -277 135 -277 285 0 79 26 248 62 399 88 373 295 758 558 1034 117
124 396 382 495 459 113 88 194 126 393 183 281 82 372 101 637 136 80 11 478
27 504 21 8 -2 192 -4 410 -3z m-3759 -1318 c0 -10 -9 -43 -20 -74 -24 -70
-65 -223 -90 -343 -46 -219 -54 -287 -54 -490 -1 -225 12 -297 77 -452 40 -94
142 -254 213 -332 134 -149 396 -304 594 -354 177 -44 397 -67 635 -67 287 0
538 45 980 175 293 87 470 150 815 292 192 80 464 186 520 203 14 4 88 30 165
58 609 217 734 260 880 305 28 8 109 33 180 56 427 132 751 217 1103 287 172
34 247 46 258 39 34 -22 157 -266 330 -658 41 -92 99 -220 130 -285 177 -370
322 -707 377 -878 20 -60 58 -197 86 -304 27 -107 57 -222 66 -255 42 -160
130 -578 169 -800 38 -225 65 -412 76 -540 11 -132 33 -1095 31 -1350 -5 -522
-64 -825 -264 -1365 -79 -214 -131 -335 -233 -550 -112 -236 -397 -798 -462
-910 -134 -233 -566 -830 -742 -1027 -556 -620 -964 -959 -1575 -1305 -344
-195 -745 -396 -963 -482 -299 -117 -487 -166 -832 -215 -111 -16 -478 -41
-610 -41 -144 0 -571 26 -659 41 -586 95 -1093 320 -1666 737 -305 223 -433
347 -704 685 -56 70 -144 176 -195 235 -165 192 -311 397 -424 595 -81 142
-200 461 -332 887 -22 74 -45 146 -50 160 -25 69 -139 508 -170 655 -122 587
-160 906 -180 1525 -12 380 2 1263 24 1475 8 77 20 192 26 255 6 63 15 138 21
165 5 28 23 120 40 205 16 85 50 234 73 330 24 96 53 220 65 275 34 163 68
276 153 510 135 371 278 667 562 1163 345 602 385 659 697 998 191 207 277
296 369 380 228 208 469 404 497 404 7 0 13 -8 13 -18z"/>
<path d="M8925 9199 c-105 -12 -206 -55 -311 -132 -147 -108 -227 -322 -209
-557 24 -299 170 -516 400 -592 64 -21 87 -23 265 -22 182 0 200 2 266 26 163
58 259 157 313 322 12 40 16 88 15 226 -2 263 -29 366 -133 503 -74 99 -182
163 -337 201 -116 28 -186 35 -269 25z"/>
<path d="M4795 9080 c-158 -21 -287 -125 -388 -310 -68 -125 -72 -145 -72
-350 0 -201 7 -242 58 -344 37 -75 125 -163 198 -198 153 -74 370 -52 524 53
79 54 220 216 253 292 69 156 44 390 -64 597 -104 200 -281 291 -509 260z"/>
<path d="M9173 5429 c-72 -14 -125 -49 -243 -163 -115 -112 -197 -181 -342
-288 -112 -83 -250 -200 -358 -303 -176 -167 -305 -267 -545 -420 -93 -60
-213 -139 -265 -176 -148 -104 -266 -158 -460 -210 -73 -20 -109 -23 -260 -23
-247 0 -320 26 -530 182 -170 128 -272 223 -351 330 -220 295 -310 424 -340
486 -73 148 -201 208 -341 160 -67 -22 -122 -75 -160 -152 -32 -65 -33 -70
-32 -192 0 -115 3 -132 32 -208 35 -95 201 -413 284 -547 68 -110 218 -286
319 -376 245 -217 379 -304 589 -382 168 -62 232 -71 525 -71 228 0 272 3 355
22 122 27 219 59 372 123 165 69 225 103 391 227 78 57 201 143 272 190 133
86 258 179 445 331 135 109 625 601 703 705 57 77 139 227 200 366 37 84 41
194 9 256 -51 99 -160 154 -269 133z"/>
</g>
</svg>
