<?xml version="1.0" standalone="no"?>
<!DOCTYPE svg PUBLIC "-//W3C//DTD SVG 20010904//EN"
 "http://www.w3.org/TR/2001/REC-SVG-20010904/DTD/svg10.dtd">
<svg version="1.0" xmlns="http://www.w3.org/2000/svg"
 width="2224.000000pt" height="1668.000000pt" viewBox="0 0 2224.000000 1668.000000"
 preserveAspectRatio="xMidYMid meet">

<g transform="translate(0.000000,1668.000000) scale(0.100000,-0.100000)"
fill="#000000" stroke="none">
<path d="M12109 16276 c-2 -2 -65 -9 -139 -15 -161 -14 -354 -46 -485 -82
-266 -72 -658 -254 -1037 -482 -229 -138 -312 -194 -442 -297 -117 -93 -148
-110 -323 -181 -308 -125 -546 -253 -830 -444 -92 -63 -287 -194 -433 -292
-368 -247 -513 -359 -835 -643 -122 -108 -408 -388 -506 -495 -404 -445 -429
-482 -875 -1265 -92 -162 -185 -324 -207 -360 -179 -292 -435 -923 -567 -1401
-202 -726 -305 -1272 -339 -1794 -70 -1046 -41 -2039 80 -2774 53 -323 163
-822 253 -1146 79 -284 300 -956 367 -1113 122 -289 340 -648 544 -896 50 -61
127 -158 172 -216 463 -597 666 -803 1123 -1142 496 -368 971 -624 1475 -793
333 -113 532 -153 960 -197 178 -18 1034 -18 1200 0 259 28 568 78 695 112
544 147 864 285 1625 697 556 302 997 617 1426 1019 94 89 347 356 565 599
276 308 730 931 944 1295 81 138 486 938 594 1175 278 607 444 1201 500 1790
18 186 41 1050 32 1163 -4 43 -11 196 -16 342 -17 458 -44 822 -80 1080 -5 36
-14 101 -19 145 -74 569 -168 1035 -293 1460 -42 142 -144 447 -175 519 -61
145 -177 403 -248 551 -42 88 -94 198 -115 245 -21 47 -55 121 -75 165 -138
296 -170 374 -157 387 14 14 210 -5 349 -33 230 -46 557 -186 722 -309 197
-147 253 -256 255 -495 0 -137 -10 -191 -84 -420 -27 -82 -65 -213 -85 -290
-20 -77 -46 -176 -59 -220 -13 -44 -29 -100 -35 -125 -6 -25 -21 -85 -33 -135
-32 -129 -31 -244 2 -309 58 -113 182 -161 306 -119 66 22 104 47 205 136 105
92 187 194 297 369 179 284 287 553 359 888 28 134 25 523 -6 680 -40 207
-101 357 -206 515 -132 199 -267 321 -533 482 -500 303 -801 392 -1507 443
-180 13 -315 13 -486 -1 -111 -8 -142 -8 -162 3 -14 7 -56 49 -94 93 -111 128
-372 444 -446 539 -200 254 -434 475 -787 743 -662 502 -1243 759 -1892 838
-112 13 -428 21 -439 11z m1141 -1180 c89 -27 289 -138 500 -278 227 -151 375
-266 518 -402 148 -142 472 -509 472 -535 0 -17 -29 -27 -240 -80 -329 -84
-631 -170 -855 -246 -294 -99 -919 -319 -1025 -360 -332 -131 -438 -172 -560
-218 -165 -64 -363 -144 -595 -242 -264 -111 -375 -149 -690 -235 -82 -22
-190 -51 -240 -65 -150 -41 -281 -56 -515 -57 -178 -2 -226 1 -280 16 -147 40
-243 110 -268 195 -24 78 -11 257 32 461 101 471 322 889 648 1226 170 175
423 406 541 494 121 89 178 114 427 185 263 75 330 90 530 119 286 41 308 42
1012 39 445 -2 547 -5 588 -17z m-4550 -1409 c0 -8 -9 -40 -21 -73 -87 -252
-169 -705 -169 -931 1 -177 46 -376 120 -524 101 -201 244 -368 410 -478 310
-207 585 -275 1105 -276 368 0 573 36 1130 200 238 70 640 215 790 285 93 44
512 204 770 295 105 37 258 91 340 120 377 135 481 170 645 220 96 29 249 76
340 104 184 56 398 115 599 167 215 55 627 135 678 132 l46 -3 59 -110 c59
-108 186 -378 295 -625 62 -141 94 -208 183 -395 145 -303 293 -650 346 -813
44 -131 190 -691 238 -908 74 -337 104 -500 172 -935 27 -174 35 -317 44 -814
5 -269 12 -566 16 -660 11 -295 -16 -712 -63 -950 -26 -135 -117 -461 -159
-572 -14 -37 -46 -124 -71 -193 -97 -268 -220 -538 -500 -1095 -237 -472 -294
-567 -567 -950 -254 -357 -379 -513 -616 -775 -191 -211 -333 -351 -556 -550
-214 -191 -524 -422 -769 -572 -257 -158 -827 -461 -1104 -587 -281 -128 -628
-237 -896 -280 -216 -35 -267 -41 -479 -56 -264 -19 -491 -19 -776 0 -252 17
-363 32 -548 75 -304 71 -506 143 -807 289 -277 135 -516 284 -821 512 -268
200 -375 303 -588 563 -44 54 -148 180 -231 278 -275 329 -379 470 -523 713
-117 197 -234 513 -443 1200 -45 148 -140 514 -169 649 -39 186 -91 462 -106
555 -85 556 -111 1115 -95 1986 10 546 17 659 61 1055 19 173 77 462 155 770
19 74 44 182 55 240 26 127 75 296 141 482 157 447 305 756 632 1326 355 618
425 720 707 1027 310 338 483 507 740 721 180 149 260 199 260 161z"/>
<path d="M13235 9864 c-33 -8 -103 -35 -155 -61 -228 -113 -340 -313 -340
-605 0 -357 156 -616 428 -710 62 -21 83 -23 282 -23 195 0 222 2 286 22 133
42 253 142 312 259 28 56 44 115 56 214 9 68 -11 367 -29 435 -53 205 -209
369 -412 435 -155 49 -311 62 -428 34z"/>
<path d="M9185 9744 c-212 -51 -367 -140 -470 -272 -62 -78 -120 -193 -140
-279 -22 -91 -17 -371 8 -443 39 -112 52 -141 99 -231 36 -69 67 -114 112
-157 111 -108 200 -142 379 -142 144 0 211 16 342 83 78 40 116 68 176 127
119 119 218 282 238 394 46 255 -34 455 -284 715 -146 152 -231 199 -367 206
-40 2 -82 2 -93 -1z"/>
<path d="M13517 5780 c-66 -26 -107 -57 -217 -170 -90 -92 -174 -161 -395
-330 -132 -100 -233 -186 -330 -279 -178 -172 -358 -312 -589 -460 -87 -56
-221 -144 -297 -196 -190 -129 -309 -184 -524 -241 -58 -16 -105 -19 -275 -18
-196 0 -209 1 -283 27 -123 43 -260 135 -470 315 -109 94 -164 156 -263 299
-38 54 -93 131 -124 172 -30 40 -72 96 -93 125 -22 28 -55 83 -74 121 -65 130
-113 173 -223 201 -54 14 -66 14 -122 -1 -80 -20 -145 -68 -186 -135 -44 -74
-53 -109 -59 -221 -8 -156 23 -249 193 -571 155 -294 249 -429 425 -609 67
-68 253 -225 353 -299 145 -105 366 -202 546 -240 115 -23 370 -33 547 -22
202 14 336 45 544 127 242 96 318 139 539 305 63 48 169 122 235 165 144 93
304 211 480 353 162 131 696 664 783 782 73 97 215 372 237 456 19 75 19 119
-2 185 -45 141 -212 216 -356 159z"/>
</g>
</svg>
